# xmcd
#
# Track frame offsets:
#	150
#	15220
#	28525
#	44905
#	64985
#	81062
#	97247
#	115255
#	130580
#	145225
#
# Disc length: 2168 seconds
#
# Revision: 4
# Processed by: cddbd v1.5.2PL0 Copyright (c) Steve Scherf et al.
# Submitted via: audiograbber 1.83.01
#
DISCID=8508760a
DTITLE=Various Artist - Country's Greatest Hits - Ten Gallon Country
DYEAR=1900
DGENRE=Oldies
TTITLE0=Ricky Van Shelton - Living Proof
TTITLE1=Garth Brooks - Much Too Young
TTITLE2=Alan Jackson - Here In The Real World
TTITLE3=Rodney Crowell - After All This Time
TTITLE4=Steve Wariner - Where Did I Go Wrong
TTITLE5=Exile - Nobody's Talking
TTITLE6=Vern Gosdin - That Just About Does It
TTITLE7=Charlie Daniels - Simple Man
TTITLE8=Skip Ewing - Burning A Hole In My Heart
TTITLE9=Dan Seals - Big Wheels In The Moonlight
EXTD=
EXTT0=
EXTT1=
EXTT2=
EXTT3=
EXTT4=
EXTT5=
EXTT6=
EXTT7=
EXTT8=
EXTT9=
PLAYORDER=
